<svg xmlns="http://www.w3.org/2000/svg" viewBox="0 0 512 512" role="img" aria-label="LoggB app maskable icon">
  <rect width="512" height="512" fill="#0f172a"/>
  <circle cx="256" cy="256" r="190" fill="#1e293b"/>
  <path d="M168 166h102c52 0 86 34 86 81s-34 81-86 81h-52v58h-50V166zm98 124c23 0 39-16 39-39s-16-39-39-39h-48v78h48z" fill="#38bdf8"/>
  <path d="M322 166h44c39 0 66 25 66 62 0 27-14 47-35 56l40 62h-56l-28-50h-21v50h-50V166zm42 88c14 0 23-9 23-23s-9-23-23-23h-32v46h32z" fill="#f8fafc"/>
</svg>
